# xmcd
#
# Track frame offsets: 
#        150
#        25805
#        44330
#        64430
#        84653
#        104467
#        122688
#        141024
#        159511
#
# Disc length: 2386 seconds
#
# Revision: 0
# Processed by: cddbd v1.5.2PL0 Copyright (c) Steve Scherf et al.
# Submitted via: ExactAudioCopy v0.99pb4
#
DISCID=78095009
DTITLE=Cheryl Lynn - In The Night
DYEAR=1981
DGENRE=R&B
TTITLE0=Shake It Up Tonight
TTITLE1=Show You How
TTITLE2=In The Night
TTITLE3=Hurry Home
TTITLE4=I'm On Fire
TTITLE5=With Love On Our Side
TTITLE6=If You'll Be True To Me
TTITLE7=What's On Your Mind
TTITLE8=Baby
EXTD=
EXTT0=
EXTT1=
EXTT2=
EXTT3=
EXTT4=
EXTT5=
EXTT6=
EXTT7=
EXTT8=
PLAYORDER=
